<!-- imported from https://raw.githubusercontent.com/icons8/line-awesome/master/svg -->
<svg xmlns="http://www.w3.org/2000/svg" xmlns:xlink="http://www.w3.org/1999/xlink" viewBox="0 0 32 32">
  <symbol id="svg-hashtag" viewBox="0 0 32 32">
    <path class="svg-fill" d="M 11 5 L 11 11 L 5 11 L 5 13 L 11 13 L 11 19 L 5 19 L 5 21 L 11 21 L 11 27 L 13 27 L 13 21 L 19 21 L 19 27 L 21 27 L 21 21 L 27 21 L 27 19 L 21 19 L 21 13 L 27 13 L 27 11 L 21 11 L 21 5 L 19 5 L 19 11 L 13 11 L 13 5 Z M 13 13 L 19 13 L 19 19 L 13 19 Z" />
  </symbol>
  <use xlink:href="#svg-hashtag" />
</svg>
