<svg xmlns="http://www.w3.org/2000/svg" xmlns:xlink="http://www.w3.org/1999/xlink" viewBox="0 0 128 128">
  <symbol id="svg-npn" viewBox="0 0 128 128">
    <g>
      <path class="svg-fill" d="M89.387 10.124 L 89.387 16.834 87.947 16.281 C 84.210 14.847,80.351 13.872,76.309 13.343 C 73.028 12.913,66.519 12.911,63.211 13.339 C 45.341 15.648,29.873 27.638,23.135 44.403 C 21.504 48.460,20.192 53.766,19.725 58.187 L 19.585 59.520 14.806 59.520 L 10.027 59.520 10.027 63.253 L 10.027 66.987 14.811 66.987 L 19.596 66.987 19.733 68.213 C 21.050 79.987,26.056 90.506,34.231 98.674 C 38.290 102.730,42.354 105.647,47.467 108.172 C 60.090 114.407,74.079 115.161,87.241 110.316 C 88.231 109.952,89.119 109.653,89.214 109.653 C 89.309 109.653,89.387 112.677,89.387 116.373 L 89.387 123.093 93.120 123.093 L 96.853 123.093 96.853 114.240 C 96.853 108.675,96.930 105.387,97.060 105.387 C 97.173 105.387,98.404 104.530,99.794 103.484 C 110.669 95.297,117.489 83.834,119.604 70.187 C 120.131 66.789,120.132 59.521,119.607 56.107 C 118.777 50.711,117.280 45.935,114.894 41.067 C 112.272 35.719,109.342 31.642,105.077 27.408 C 103.035 25.380,98.010 21.305,97.141 20.972 C 96.906 20.881,96.853 19.263,96.853 12.137 L 96.853 3.413 93.120 3.413 L 89.387 3.413 89.387 10.124 M75.610 20.802 C 79.694 21.338,84.140 22.638,87.855 24.382 L 88.991 24.916 76.161 33.898 C 69.105 38.838,63.291 42.880,63.240 42.880 C 63.188 42.880,63.147 41.104,63.147 38.933 L 63.147 34.987 58.242 34.987 L 53.337 34.987 53.282 47.200 L 53.227 59.413 40.214 59.413 L 27.202 59.413 27.266 58.560 C 27.786 51.677,31.121 43.316,35.795 37.180 C 42.399 28.509,52.231 22.681,63.253 20.902 C 66.300 20.410,72.254 20.362,75.610 20.802 M99.452 32.386 C 103.163 35.971,105.957 39.791,108.180 44.319 C 112.323 52.756,113.564 62.496,111.681 71.799 C 110.460 77.836,107.863 83.639,104.084 88.773 C 102.769 90.560,97.466 96.044,96.389 96.731 L 95.818 97.095 93.203 95.263 L 90.588 93.430 86.172 86.805 C 83.743 83.161,81.673 80.205,81.571 80.235 C 81.470 80.264,80.643 81.276,79.735 82.483 L 78.083 84.677 70.615 79.446 L 63.147 74.216 63.147 63.177 L 63.147 52.138 79.500 40.691 L 95.853 29.245 96.513 29.715 C 96.876 29.973,98.199 31.175,99.452 32.386 M53.333 79.257 L 53.333 91.528 58.187 91.471 L 63.040 91.413 63.147 87.414 L 63.253 83.416 66.347 85.583 C 68.048 86.776,70.376 88.412,71.520 89.219 L 73.601 90.686 72.000 92.800 C 71.120 93.962,70.401 94.989,70.401 95.083 C 70.402 95.177,74.074 96.295,78.561 97.568 C 85.510 99.539,86.888 99.996,87.851 100.651 L 88.982 101.419 88.218 101.811 C 85.734 103.086,80.948 104.637,77.547 105.269 C 67.726 107.096,57.183 105.277,48.377 100.238 C 44.333 97.924,39.554 93.855,36.633 90.240 C 31.629 84.046,28.257 76.157,27.354 68.533 L 27.170 66.987 40.252 66.987 L 53.333 66.987 53.333 79.257" />
    </g>
  </symbol>
  <use xlink:href="#svg-npn" />
</svg>
